<svg class="svg-logo-blue" xmlns="http://www.w3.org/2000/svg" width="74.772" height="26.096">
  <g fill="#293447">
    <path d="m64.721.212-2.754 10.594h-9.1L55.621.212h-8.2a8.948 8.948 0 0 1 1.975 1.736 8.782 8.782 0 0 1 1.437 7.6 13.928 13.928 0 0 1-10.235 9.875l-1.676 6.46h9.995l2.154-8.32h9.1l-2.151 8.32h9.992L74.772.212Z"/>
    <path d="M42.393 0H16.6C9.414 0 2.113 5.864.377 13.048S3.071 26.1 10.312 26.1h7.182l1.915-7.844h-7.183c-2.873 0-4.669-2.334-3.95-5.267A7.142 7.142 0 0 1 14.8 7.721h8.558l-4.607 18.254h7.721L30.9 7.721h9.636a1.141 1.141 0 0 1 1.137 1.5 1.965 1.965 0 0 1-1.795 1.5H31.5l-2.035 7.844H37.9c5.15 0 10.294-4.189 11.551-9.277S47.54 0 42.393 0"/>
  </g>
</svg>
