<?xml version="1.0" encoding="UTF-8"?>
<svg xmlns="http://www.w3.org/2000/svg" width="162" height="51" viewBox="0 0 162 51" fill="none">
  <g id="Group 1">
    <path id="Vector" d="M20.2566 19.9376L7.16829 6.80968C6.51485 6.14498 5.44534 6.66199 5.42554 7.64059V10.7795L13.346 18.7006C13.8279 19.174 14.0968 19.8019 14.0968 20.4547C14.0968 21.1074 13.8279 21.7353 13.346 22.2088L5.42554 29.5944V32.4932C5.42554 33.4533 6.43559 33.9889 7.10883 33.3795L20.3557 21.5625C20.5414 21.3221 20.6328 21.0295 20.6148 20.7337C20.5968 20.4379 20.4703 20.1569 20.2566 19.9376Z" fill="#036FFA"></path>
    <path id="Vector_2" d="M0.123048 11.0043L0 30.2399C0 31.3009 1.06944 31.851 1.76888 31.1633L11.561 21.7911C11.8024 21.535 11.9362 21.2025 11.9362 20.8579C11.9362 20.5132 11.8024 20.1808 11.561 19.9246L1.89243 10.1006C1.23414 9.35394 0.123048 9.94331 0.123048 11.0043Z" fill="#036FFA"></path>
    <g id="Group 16">
      <path id="Vector_3" d="M27.1277 34.7234V0H34.6275V12.0037C35.5123 11.2353 36.5048 10.5976 37.5741 10.1103C38.7865 9.61617 40.0897 9.37759 41.4006 9.40982C42.6482 9.39285 43.8861 9.63135 45.0361 10.1103C46.0572 10.5417 46.971 11.1878 47.7145 12.0037C48.4587 12.8825 49.0178 13.8996 49.3596 14.9951C49.7373 16.2222 49.9244 17.499 49.9145 18.7817V34.7234H42.4147V18.9331C42.4755 17.9156 42.1706 16.9095 41.5538 16.0932C41.2436 15.7498 40.8581 15.481 40.4271 15.3071C39.9961 15.1332 39.5309 15.0589 39.0665 15.0898C38.2633 15.0832 37.4701 15.2648 36.7515 15.6198C35.9929 15.987 35.2906 16.4588 34.6659 17.021V34.7234H27.1277Z" fill="white"></path>
      <path id="Vector_4" d="M62.5565 9.76562V25.2957C62.4959 26.305 62.7856 27.3036 63.3743 28.1141C63.6681 28.4538 64.034 28.7196 64.4437 28.8911C64.8534 29.0626 65.2959 29.1353 65.7372 29.1035C66.4979 29.1076 67.2496 28.9353 67.9364 28.5995C68.6621 28.2466 69.3305 27.7807 69.9177 27.2182V9.76562H77.0425V34.3486H72.6259C72.2296 34.4001 71.8286 34.3041 71.4952 34.0781C71.1618 33.8522 70.918 33.5112 70.8083 33.1167L70.3721 31.6981C69.9302 32.1446 69.4563 32.5563 68.9544 32.93C68.4619 33.3044 67.932 33.6235 67.3733 33.882C66.7892 34.1496 66.1802 34.356 65.5557 34.498C64.8571 34.6531 64.1436 34.7282 63.4289 34.722C62.2416 34.7417 61.0642 34.4998 59.9756 34.0126C59 33.5978 58.1293 32.9593 57.4308 32.146C56.7238 31.2796 56.1926 30.2769 55.8679 29.1968C55.5083 27.9872 55.3305 26.7283 55.3408 25.4636V9.93355L62.5565 9.76562Z" fill="white"></path>
      <path id="Vector_5" d="M98.8597 15.4505C98.702 15.7024 98.4811 15.9166 98.2154 16.0756C97.946 16.216 97.6397 16.286 97.3297 16.278C96.9413 16.2756 96.5575 16.2006 96.2022 16.0573L94.9941 15.5792C94.525 15.3863 94.0405 15.2264 93.5447 15.1011C92.9354 14.946 92.305 14.8717 91.6726 14.8805C90.8677 14.8315 90.0657 15.0113 89.3773 15.3953C89.1173 15.5535 88.9069 15.7704 88.7659 16.0249C88.6248 16.2794 88.558 16.563 88.5722 16.848C88.5666 17.0583 88.6102 17.2672 88.7005 17.4607C88.7908 17.6542 88.9257 17.8277 89.0956 17.9697C89.5041 18.3012 89.9746 18.5628 90.4846 18.7419C91.1387 18.9984 91.8113 19.2135 92.4978 19.3856C93.2225 19.5879 93.9878 19.8085 94.7326 20.066C95.5044 20.3081 96.2573 20.5967 96.9871 20.9301C97.7167 21.2548 98.394 21.6693 99.0003 22.1621C99.5958 22.6821 100.069 23.3079 100.39 24.0009C100.756 24.7914 100.934 25.6438 100.913 26.5018C100.923 27.637 100.683 28.7625 100.208 29.8117C99.7277 30.8211 98.9972 31.7149 98.0743 32.4228C97.0418 33.1839 95.8597 33.7581 94.5916 34.1145C93.0448 34.5397 91.4357 34.7444 89.8206 34.7213C88.898 34.697 87.9803 34.5861 87.0825 34.3903C86.1946 34.2406 85.3197 34.0316 84.4653 33.7651C83.6565 33.5198 82.8748 33.2059 82.1302 32.8274C81.4768 32.4937 80.8626 32.0993 80.2979 31.6505L82.1302 29.0026C82.3333 28.7104 82.6005 28.4599 82.9151 28.267C83.2801 28.0705 83.6998 27.9748 84.1232 27.9913C84.5536 27.9902 84.9765 28.0916 85.3509 28.2854L86.5389 28.8739C87.0153 29.1152 87.5137 29.3182 88.0286 29.4807C88.7233 29.6891 89.4518 29.7885 90.1828 29.7749C90.7064 29.7792 91.2281 29.7173 91.733 29.591C92.1085 29.5 92.4585 29.337 92.7598 29.1129C92.9926 28.9246 93.1781 28.6925 93.3034 28.4326C93.4215 28.1958 93.4829 27.9388 93.4842 27.6786C93.49 27.4574 93.4469 27.2375 93.3569 27.032C93.267 26.8266 93.132 26.64 92.9608 26.4834C92.5479 26.1434 92.0703 25.8755 91.5517 25.6927C90.8972 25.4372 90.2246 25.2221 89.5385 25.0491C88.7936 24.8652 88.049 24.6446 87.284 24.3871C86.51 24.1432 85.7562 23.8483 85.029 23.5045C84.2881 23.1594 83.6092 22.7128 83.0158 22.1805C82.4257 21.6073 81.9551 20.9405 81.6269 20.213C81.2399 19.3182 81.0549 18.3613 81.0833 17.3996C81.0811 16.3955 81.3003 15.4011 81.7276 14.4759C82.1934 13.5405 82.8811 12.7114 83.7408 12.0486C84.6963 11.3039 85.8049 10.7413 87.0019 10.3937C88.4821 9.94963 90.0342 9.73818 91.592 9.76847C92.5178 9.76339 93.442 9.84349 94.3502 10.0075C95.2033 10.1475 96.0393 10.3631 96.8466 10.6512C97.6012 10.9113 98.3229 11.2442 99.0003 11.6441C99.6132 11.995 100.181 12.4083 100.692 12.8761L98.8597 15.4505Z" fill="white"></path>
      <path id="Vector_6" d="M119.723 15.3795C119.581 15.6323 119.383 15.8473 119.145 16.0069C118.904 16.1496 118.628 16.22 118.35 16.21C118.007 16.2072 117.669 16.1318 117.356 15.9885L116.272 15.5087C115.844 15.3179 115.404 15.1575 114.954 15.0288C114.413 14.8744 113.853 14.7998 113.292 14.8073C112.564 14.7615 111.84 14.9416 111.214 15.324C110.987 15.4874 110.803 15.7065 110.68 15.9613C110.557 16.216 110.499 16.4983 110.51 16.7821C110.501 16.9919 110.537 17.2011 110.615 17.3954C110.693 17.5897 110.811 17.7646 110.962 17.9079C111.334 18.2328 111.754 18.4945 112.208 18.683C112.795 18.9395 113.399 19.1554 114.014 19.3291C114.665 19.5321 115.333 19.7535 116.02 20.0119C116.706 20.255 117.376 20.5447 118.025 20.8793C118.679 21.2064 119.286 21.6223 119.831 22.1158C120.355 22.6464 120.778 23.2723 121.078 23.9614C121.4 24.7561 121.554 25.6117 121.529 26.4715C121.547 27.6117 121.331 28.7431 120.897 29.7936C120.466 30.8067 119.81 31.7038 118.982 32.4143C118.06 33.1853 116.998 33.7624 115.857 34.1122C114.469 34.539 113.025 34.7445 111.576 34.7213C110.763 34.7238 109.952 34.6434 109.155 34.4814C108.358 34.3311 107.573 34.1214 106.807 33.8539C106.087 33.6076 105.391 33.2925 104.729 32.9127C104.138 32.5868 103.585 32.1903 103.085 31.7314L104.729 29.0738C104.912 28.7805 105.151 28.5291 105.434 28.3355C105.754 28.1377 106.125 28.0414 106.5 28.0587C106.892 28.0578 107.277 28.1594 107.619 28.354L108.685 28.9446C109.107 29.1869 109.548 29.3907 110.004 29.5537C110.628 29.7614 111.281 29.8611 111.937 29.8489C112.413 29.853 112.887 29.791 113.346 29.6644C113.678 29.5733 113.986 29.4095 114.249 29.1845C114.468 29.0005 114.641 28.7666 114.755 28.5016C114.861 28.264 114.916 28.0061 114.918 27.745C114.924 27.5212 114.883 27.2986 114.799 27.0919C114.715 26.8851 114.589 26.6988 114.43 26.5453C114.063 26.2079 113.641 25.9392 113.183 25.7517C112.595 25.4983 111.992 25.2825 111.377 25.1057C110.709 24.9211 110.04 24.6997 109.354 24.4413C108.659 24.1965 107.983 23.9005 107.331 23.5555C106.66 23.2185 106.05 22.7693 105.524 22.2266C104.983 21.6568 104.554 20.9865 104.26 20.2519C103.928 19.35 103.768 18.3913 103.79 17.428C103.788 16.4202 103.985 15.4221 104.368 14.4935C104.78 13.5507 105.398 12.7173 106.175 12.0574C107.032 11.31 108.027 10.7452 109.101 10.3963C110.423 9.94914 111.81 9.73684 113.202 9.76875C114.032 9.76365 114.862 9.84404 115.677 10.0087C116.448 10.1492 117.204 10.3656 117.935 10.6547C118.606 10.9159 119.248 11.25 119.849 11.6513C120.401 12.0082 120.916 12.4226 121.385 12.8878L119.723 15.3795Z" fill="white"></path>
      <path id="Vector_7" d="M133.468 0V34.7234H125.872V0.0943853L133.468 0Z" fill="white"></path>
      <path id="Vector_8" d="M150.27 9.76748C151.84 9.75238 153.399 10.0087 154.874 10.5242C156.221 10.9897 157.448 11.7263 158.472 12.6839C159.504 13.6775 160.308 14.8655 160.832 16.1723C161.41 17.6726 161.692 19.2623 161.663 20.8608C161.687 21.3035 161.687 21.747 161.663 22.1897C161.62 22.4727 161.529 22.747 161.393 23.0018C161.27 23.1997 161.078 23.35 160.851 23.4264C160.582 23.5086 160.301 23.5461 160.019 23.5372H145.395C145.46 25.1824 146.147 26.7495 147.33 27.9486C148.443 28.8687 149.882 29.3504 151.353 29.2961C152.126 29.3146 152.896 29.2148 153.636 29.0007C154.223 28.8201 154.792 28.5916 155.338 28.3177L156.692 27.6533C157.099 27.4523 157.549 27.3449 158.008 27.3395C158.273 27.3275 158.538 27.3785 158.777 27.488C159.017 27.5976 159.224 27.7621 159.381 27.967L161.586 30.5697C160.852 31.3781 159.998 32.0807 159.052 32.6554C158.179 33.1775 157.244 33.5989 156.267 33.9106C155.338 34.2137 154.378 34.4239 153.404 34.5381C152.5 34.66 151.589 34.7217 150.676 34.7227C148.967 34.7342 147.271 34.4528 145.666 33.8921C144.141 33.3556 142.75 32.5192 141.585 31.4372C140.374 30.2767 139.432 28.8871 138.819 27.3579C138.108 25.5538 137.767 23.6365 137.813 21.7098C137.808 20.14 138.103 18.5826 138.683 17.1137C139.229 15.6945 140.079 14.3995 141.178 13.3114C142.269 12.2061 143.586 11.3266 145.047 10.7273C146.699 10.0647 148.478 9.73782 150.27 9.76748ZM150.425 14.7696C149.803 14.7333 149.18 14.8194 148.594 15.0227C148.008 15.2259 147.473 15.5418 147.02 15.9509C146.126 16.8898 145.559 18.0697 145.395 19.3287H154.874C154.874 18.7615 154.796 18.1968 154.642 17.6491C154.489 17.1218 154.233 16.6269 153.888 16.1908C153.506 15.7548 153.031 15.4022 152.494 15.1572C151.849 14.8846 151.149 14.7522 150.444 14.7696H150.425Z" fill="white"></path>
      <g id="Direct Sales Enablement">
        <path d="M29.8749 50.8638H27.1277V42.6483H29.9619C30.7934 42.6483 31.5075 42.8127 32.1042 43.1417C32.7008 43.468 33.158 43.9373 33.4757 44.5497C33.7961 45.1595 33.9563 45.8909 33.9563 46.744C33.9563 47.5998 33.7947 48.3352 33.4715 48.9503C33.1511 49.5654 32.687 50.0388 32.0793 50.3704C31.4716 50.6993 30.7368 50.8638 29.8749 50.8638ZM28.4081 49.7807H29.8045C30.4509 49.7807 30.9881 49.663 31.4163 49.4277C31.8445 49.1897 32.1649 48.846 32.3776 48.3967C32.5903 47.9448 32.6967 47.3939 32.6967 46.744C32.6967 46.0995 32.5903 45.5526 32.3776 45.1033C32.1677 44.654 31.8542 44.313 31.437 44.0804C31.0199 43.8477 30.502 43.7314 29.8832 43.7314H28.4081V49.7807Z" fill="white"></path>
        <path d="M35.4491 50.8638V44.7022H36.688V50.8638H35.4491ZM36.0748 43.7514C35.8593 43.7514 35.6742 43.6819 35.5195 43.5428C35.3676 43.4011 35.2916 43.2326 35.2916 43.0374C35.2916 42.8395 35.3676 42.671 35.5195 42.5319C35.6742 42.3902 35.8593 42.3193 36.0748 42.3193C36.2902 42.3193 36.4739 42.3902 36.6259 42.5319C36.7806 42.671 36.8579 42.8395 36.8579 43.0374C36.8579 43.2326 36.7806 43.4011 36.6259 43.5428C36.4739 43.6819 36.2902 43.7514 36.0748 43.7514Z" fill="white"></path>
        <path d="M38.3548 50.8638V44.7022H39.5523V45.681H39.6186C39.7346 45.3493 39.939 45.0886 40.2318 44.8987C40.5274 44.7062 40.8617 44.6099 41.2346 44.6099C41.3119 44.6099 41.4031 44.6126 41.5081 44.6179C41.6158 44.6233 41.7001 44.63 41.7608 44.638V45.7853C41.7111 45.7719 41.6227 45.7572 41.4956 45.7411C41.3686 45.7224 41.2415 45.7131 41.1144 45.7131C40.8216 45.7131 40.5606 45.7732 40.3313 45.8936C40.1048 46.0112 39.9252 46.1757 39.7926 46.387C39.66 46.5956 39.5937 46.8336 39.5937 47.101V50.8638H38.3548Z" fill="white"></path>
        <path d="M45.3482 50.9882C44.7211 50.9882 44.181 50.8584 43.728 50.599C43.2777 50.337 42.9297 49.9692 42.6838 49.4959C42.4407 49.0199 42.3192 48.4623 42.3192 47.8231C42.3192 47.192 42.4407 46.6357 42.6838 46.1543C42.9297 45.6729 43.2722 45.2972 43.7114 45.0271C44.1534 44.757 44.67 44.6219 45.2611 44.6219C45.6202 44.6219 45.9683 44.6794 46.3053 44.7944C46.6423 44.9094 46.9448 45.0899 47.2128 45.336C47.4807 45.582 47.692 45.9016 47.8467 46.2947C48.0014 46.6852 48.0788 47.1599 48.0788 47.7188V48.144H43.0194V47.2454H46.8647C46.8647 46.9299 46.7984 46.6504 46.6658 46.407C46.5332 46.161 46.3468 45.9671 46.1064 45.8254C45.8689 45.6836 45.5899 45.6128 45.2694 45.6128C44.9214 45.6128 44.6175 45.6957 44.3578 45.8615C44.1009 46.0246 43.902 46.2386 43.7612 46.5033C43.623 46.7654 43.554 47.0502 43.554 47.3578V48.0598C43.554 48.4716 43.6286 48.822 43.7777 49.1108C43.9297 49.3996 44.141 49.6202 44.4117 49.7727C44.6824 49.9224 44.9987 49.9973 45.3606 49.9973C45.5954 49.9973 45.8095 49.9652 46.0028 49.901C46.1962 49.8342 46.3633 49.7352 46.5042 49.6042C46.6451 49.4731 46.7528 49.3114 46.8274 49.1188L48.0001 49.3234C47.9061 49.6577 47.7376 49.9505 47.4945 50.2019C47.2542 50.4506 46.9517 50.6445 46.5871 50.7836C46.2252 50.92 45.8122 50.9882 45.3482 50.9882Z" fill="white"></path>
        <path d="M52.1343 50.9882C51.5183 50.9882 50.9879 50.8531 50.5432 50.583C50.1012 50.3102 49.7614 49.9345 49.5239 49.4558C49.2863 48.9771 49.1675 48.4288 49.1675 47.8111C49.1675 47.1853 49.2891 46.633 49.5322 46.1543C49.7752 45.6729 50.1178 45.2972 50.5598 45.0271C51.0018 44.757 51.5225 44.6219 52.1219 44.6219C52.6053 44.6219 53.0363 44.7088 53.4147 44.8827C53.7932 45.0538 54.0984 45.2945 54.3305 45.6047C54.5653 45.915 54.7048 46.2773 54.749 46.6919H53.5432C53.4769 46.403 53.3249 46.1543 53.0874 45.9457C52.8526 45.7371 52.5376 45.6328 52.1426 45.6328C51.7973 45.6328 51.4948 45.7211 51.2352 45.8976C50.9783 46.0714 50.778 46.3201 50.6344 46.6437C50.4907 46.9646 50.4189 47.3444 50.4189 47.783C50.4189 48.2323 50.4893 48.62 50.6302 48.9463C50.7711 49.2726 50.97 49.5253 51.2269 49.7045C51.4866 49.8837 51.7918 49.9732 52.1426 49.9732C52.3774 49.9732 52.5901 49.9318 52.7807 49.8489C52.9741 49.7633 53.1357 49.6416 53.2655 49.4838C53.3981 49.3261 53.4907 49.1362 53.5432 48.9142H54.749C54.7048 49.3127 54.5708 49.6684 54.347 49.9813C54.1233 50.2942 53.8235 50.5402 53.4479 50.7194C53.0749 50.8986 52.6371 50.9882 52.1343 50.9882Z" fill="white"></path>
        <path d="M59.0448 44.7022V45.6649H55.5684V44.7022H59.0448ZM56.5007 43.2259H57.7396V49.0546C57.7396 49.2873 57.7755 49.4625 57.8473 49.5801C57.9192 49.6951 58.0117 49.774 58.125 49.8168C58.241 49.8569 58.3667 49.877 58.502 49.877C58.6015 49.877 58.6885 49.8703 58.7631 49.8569C58.8377 49.8435 58.8957 49.8328 58.9371 49.8248L59.1609 50.8157C59.089 50.8424 58.9868 50.8691 58.8542 50.8959C58.7216 50.9253 58.5559 50.9414 58.357 50.944C58.031 50.9494 57.7272 50.8932 57.4454 50.7755C57.1636 50.6579 56.9357 50.476 56.7617 50.23C56.5877 49.9839 56.5007 49.6751 56.5007 49.3033V43.2259Z" fill="white"></path>
        <path d="M68.2312 44.8065C68.187 44.4267 68.0047 44.1325 67.6842 43.9239C67.3638 43.7127 66.9605 43.607 66.4743 43.607C66.1263 43.607 65.8252 43.6605 65.571 43.7675C65.3169 43.8718 65.1194 44.0162 64.9785 44.2007C64.8404 44.3826 64.7713 44.5898 64.7713 44.8225C64.7713 45.0177 64.8183 45.1862 64.9122 45.3279C65.0089 45.4697 65.1346 45.5887 65.2892 45.685C65.4467 45.7786 65.6152 45.8575 65.7948 45.9216C65.9743 45.9832 66.147 46.034 66.3127 46.0741L67.1414 46.2827C67.4122 46.3469 67.6898 46.4338 67.9743 46.5434C68.2588 46.6531 68.5226 46.7975 68.7657 46.9767C69.0088 47.1558 69.205 47.3778 69.3541 47.6426C69.5061 47.9073 69.582 48.2242 69.582 48.5933C69.582 49.0586 69.4577 49.4718 69.2091 49.8328C68.9632 50.1939 68.6055 50.4787 68.1359 50.6873C67.6691 50.8959 67.1041 51.0002 66.4412 51.0002C65.8058 51.0002 65.2561 50.9026 64.792 50.7073C64.3279 50.5121 63.9647 50.2353 63.7022 49.877C63.4398 49.5159 63.2948 49.088 63.2672 48.5933H64.5517C64.5765 48.8901 64.676 49.1375 64.85 49.3354C65.0268 49.5306 65.252 49.6764 65.5254 49.7727C65.8017 49.8663 66.1042 49.9131 66.4329 49.9131C66.7948 49.9131 67.1166 49.8583 67.3983 49.7486C67.6829 49.6363 67.9066 49.4812 68.0696 49.2833C68.2326 49.0827 68.3141 48.8487 68.3141 48.5813C68.3141 48.3379 68.2423 48.1387 68.0986 47.9836C67.9577 47.8284 67.7657 47.7001 67.5227 47.5984C67.2823 47.4968 67.0102 47.4072 66.7064 47.3297L65.7036 47.0649C65.0241 46.8857 64.4854 46.6223 64.0876 46.2747C63.6926 45.927 63.4951 45.467 63.4951 44.8947C63.4951 44.4214 63.6277 44.0082 63.8929 43.6552C64.158 43.3021 64.5172 43.028 64.9702 42.8328C65.4232 42.6349 65.9343 42.536 66.5033 42.536C67.0779 42.536 67.5848 42.6336 68.024 42.8288C68.466 43.024 68.8141 43.2928 69.0682 43.6351C69.3224 43.9747 69.455 44.3652 69.466 44.8065H68.2312Z" fill="white"></path>
        <path d="M72.8648 51.0002C72.4615 51.0002 72.0968 50.928 71.7709 50.7836C71.4449 50.6365 71.1866 50.4239 70.996 50.1457C70.8082 49.8676 70.7143 49.5266 70.7143 49.1228C70.7143 48.7752 70.7833 48.489 70.9214 48.2644C71.0596 48.0397 71.246 47.8619 71.4808 47.7308C71.7156 47.5998 71.9781 47.5008 72.2681 47.434C72.5582 47.3671 72.8537 47.3163 73.1548 47.2815C73.5361 47.2388 73.8454 47.204 74.083 47.1772C74.3206 47.1478 74.4932 47.101 74.601 47.0368C74.7087 46.9727 74.7626 46.8684 74.7626 46.7239V46.6959C74.7626 46.3455 74.6604 46.0741 74.4559 45.8815C74.2543 45.689 73.9532 45.5927 73.5526 45.5927C73.1355 45.5927 72.8068 45.6823 72.5665 45.8615C72.3289 46.038 72.1645 46.2345 72.0734 46.4512L70.909 46.1944C71.0471 45.82 71.2488 45.5178 71.514 45.2878C71.7819 45.0552 72.0899 44.8867 72.438 44.7824C72.7861 44.6754 73.1521 44.6219 73.5361 44.6219C73.7902 44.6219 74.0595 44.6513 74.3441 44.7102C74.6313 44.7663 74.8993 44.8706 75.1479 45.0231C75.3993 45.1755 75.6051 45.3935 75.7653 45.6769C75.9255 45.9578 76.0056 46.3228 76.0056 46.7721V50.8638H74.7957V50.0214H74.746C74.6659 50.1765 74.5457 50.3289 74.3855 50.4787C74.2253 50.6285 74.0195 50.7528 73.7681 50.8518C73.5167 50.9507 73.2156 51.0002 72.8648 51.0002ZM73.1341 50.0374C73.4767 50.0374 73.7695 49.9719 74.0126 49.8409C74.2584 49.7098 74.4449 49.5387 74.572 49.3274C74.7018 49.1135 74.7667 48.8848 74.7667 48.6414V47.8472C74.7225 47.8899 74.6369 47.9301 74.5098 47.9675C74.3855 48.0023 74.2432 48.033 74.083 48.0598C73.9228 48.0838 73.7667 48.1066 73.6148 48.128C73.4629 48.1467 73.3358 48.1627 73.2336 48.1761C72.9932 48.2055 72.7736 48.255 72.5747 48.3245C72.3786 48.3941 72.2212 48.4943 72.1024 48.6254C71.9863 48.7538 71.9283 48.9249 71.9283 49.1389C71.9283 49.4357 72.0416 49.6604 72.2681 49.8128C72.4946 49.9625 72.7833 50.0374 73.1341 50.0374Z" fill="white"></path>
        <path d="M78.8948 42.6483V50.8638H77.6558V42.6483H78.8948Z" fill="white"></path>
        <path d="M83.3046 50.9882C82.6775 50.9882 82.1375 50.8584 81.6845 50.599C81.2342 50.337 80.8861 49.9692 80.6403 49.4959C80.3972 49.0199 80.2756 48.4623 80.2756 47.8231C80.2756 47.192 80.3972 46.6357 80.6403 46.1543C80.8861 45.6729 81.2287 45.2972 81.6679 45.0271C82.1099 44.757 82.6264 44.6219 83.2176 44.6219C83.5767 44.6219 83.9248 44.6794 84.2618 44.7944C84.5988 44.9094 84.9013 45.0899 85.1692 45.336C85.4372 45.582 85.6485 45.9016 85.8032 46.2947C85.9579 46.6852 86.0352 47.1599 86.0352 47.7188V48.144H80.9759V47.2454H84.8212C84.8212 46.9299 84.7549 46.6504 84.6223 46.407C84.4897 46.161 84.3032 45.9671 84.0629 45.8254C83.8253 45.6836 83.5463 45.6128 83.2259 45.6128C82.8778 45.6128 82.5739 45.6957 82.3143 45.8615C82.0574 46.0246 81.8585 46.2386 81.7176 46.5033C81.5795 46.7654 81.5104 47.0502 81.5104 47.3578V48.0598C81.5104 48.4716 81.585 48.822 81.7342 49.1108C81.8861 49.3996 82.0974 49.6202 82.3681 49.7727C82.6389 49.9224 82.9552 49.9973 83.317 49.9973C83.5518 49.9973 83.7659 49.9652 83.9593 49.901C84.1527 49.8342 84.3198 49.7352 84.4607 49.6042C84.6016 49.4731 84.7093 49.3114 84.7839 49.1188L85.9565 49.3234C85.8626 49.6577 85.6941 49.9505 85.451 50.2019C85.2107 50.4506 84.9082 50.6445 84.5435 50.7836C84.1817 50.92 83.7687 50.9882 83.3046 50.9882Z" fill="white"></path>
        <path d="M92.1792 46.2065L91.0563 46.399C91.0093 46.26 90.9347 46.1276 90.8325 46.0019C90.7331 45.8762 90.5977 45.7732 90.4264 45.693C90.2552 45.6128 90.0411 45.5726 89.7842 45.5726C89.4333 45.5726 89.1405 45.6489 88.9057 45.8013C88.6709 45.9511 88.5535 46.145 88.5535 46.383C88.5535 46.5889 88.6322 46.7547 88.7897 46.8804C88.9472 47.0061 89.2013 47.109 89.5521 47.1893L90.5632 47.4139C91.1488 47.545 91.5853 47.7469 91.8725 48.0197C92.1598 48.2924 92.3035 48.6468 92.3035 49.0827C92.3035 49.4518 92.193 49.7807 91.972 50.0695C91.7538 50.3557 91.4485 50.5803 91.0563 50.7435C90.6668 50.9066 90.2151 50.9882 89.7013 50.9882C88.9886 50.9882 88.4071 50.8411 87.9568 50.5469C87.5066 50.25 87.2303 49.8288 87.1281 49.2833L88.3256 49.1068C88.4002 49.409 88.5535 49.6376 88.7856 49.7927C89.0176 49.9452 89.3201 50.0214 89.693 50.0214C90.0991 50.0214 90.4237 49.9398 90.6668 49.7767C90.9098 49.6109 91.0314 49.409 91.0314 49.171C91.0314 48.9784 90.9568 48.8166 90.8076 48.6856C90.6612 48.5545 90.4361 48.4556 90.1322 48.3887L89.0549 48.1601C88.461 48.029 88.0218 47.8204 87.7372 47.5343C87.4555 47.2481 87.3146 46.8857 87.3146 46.4472C87.3146 46.0834 87.4195 45.7652 87.6295 45.4924C87.8394 45.2196 88.1295 45.007 88.4996 44.8546C88.8698 44.6995 89.2938 44.6219 89.7717 44.6219C90.4596 44.6219 91.001 44.7663 91.396 45.0552C91.7911 45.3413 92.0521 45.7251 92.1792 46.2065Z" fill="white"></path>
        <path d="M96.8532 50.8638V42.6483H102.174V43.7153H98.1335V46.2185H101.896V47.2815H98.1335V49.7967H102.223V50.8638H96.8532Z" fill="white"></path>
        <path d="M105.023 47.2053V50.8638H103.784V44.7022H104.974V45.705H105.052C105.199 45.3788 105.428 45.1167 105.74 44.9188C106.055 44.7209 106.451 44.6219 106.929 44.6219C107.363 44.6219 107.743 44.7102 108.069 44.8867C108.395 45.0605 108.648 45.3199 108.827 45.6649C109.007 46.0099 109.096 46.4365 109.096 46.9446V50.8638H107.858V47.089C107.858 46.6424 107.737 46.2934 107.497 46.042C107.257 45.7879 106.927 45.6609 106.507 45.6609C106.219 45.6609 105.964 45.7211 105.74 45.8414C105.519 45.9618 105.344 46.1383 105.214 46.3709C105.087 46.6009 105.023 46.8791 105.023 47.2053Z" fill="white"></path>
        <path d="M112.61 51.0002C112.207 51.0002 111.842 50.928 111.516 50.7836C111.19 50.6365 110.932 50.4239 110.741 50.1457C110.554 49.8676 110.46 49.5266 110.46 49.1228C110.46 48.7752 110.529 48.489 110.667 48.2644C110.805 48.0397 110.991 47.8619 111.226 47.7308C111.461 47.5998 111.724 47.5008 112.014 47.434C112.304 47.3671 112.599 47.3163 112.9 47.2815C113.282 47.2388 113.591 47.204 113.828 47.1772C114.066 47.1478 114.239 47.101 114.346 47.0368C114.454 46.9727 114.508 46.8684 114.508 46.7239V46.6959C114.508 46.3455 114.406 46.0741 114.201 45.8815C114 45.689 113.699 45.5927 113.298 45.5927C112.881 45.5927 112.552 45.6823 112.312 45.8615C112.074 46.038 111.91 46.2345 111.819 46.4512L110.654 46.1944C110.793 45.82 110.994 45.5178 111.259 45.2878C111.527 45.0552 111.835 44.8867 112.183 44.7824C112.532 44.6754 112.898 44.6219 113.282 44.6219C113.536 44.6219 113.805 44.6513 114.09 44.7102C114.377 44.7663 114.645 44.8706 114.893 45.0231C115.145 45.1755 115.351 45.3935 115.511 45.6769C115.671 45.9578 115.751 46.3228 115.751 46.7721V50.8638H114.541V50.0214H114.491C114.411 50.1765 114.291 50.3289 114.131 50.4787C113.971 50.6285 113.765 50.7528 113.514 50.8518C113.262 50.9507 112.961 51.0002 112.61 51.0002ZM112.88 50.0374C113.222 50.0374 113.515 49.9719 113.758 49.8409C114.004 49.7098 114.19 49.5387 114.317 49.3274C114.447 49.1135 114.512 48.8848 114.512 48.6414V47.8472C114.468 47.8899 114.382 47.9301 114.255 47.9675C114.131 48.0023 113.989 48.033 113.828 48.0598C113.668 48.0838 113.512 48.1066 113.36 48.128C113.208 48.1467 113.081 48.1627 112.979 48.1761C112.739 48.2055 112.519 48.255 112.32 48.3245C112.124 48.3941 111.967 48.4943 111.848 48.6254C111.732 48.7538 111.674 48.9249 111.674 49.1389C111.674 49.4357 111.787 49.6604 112.014 49.8128C112.24 49.9625 112.529 50.0374 112.88 50.0374Z" fill="white"></path>
        <path d="M117.501 50.8638V42.6483H118.74V45.701H118.814C118.886 45.5726 118.99 45.4242 119.125 45.2557C119.26 45.0873 119.448 44.9402 119.689 44.8145C119.929 44.6861 120.247 44.6219 120.642 44.6219C121.155 44.6219 121.614 44.7476 122.017 44.999C122.421 45.2504 122.737 45.6128 122.966 46.0861C123.198 46.5595 123.314 47.1291 123.314 47.795C123.314 48.4609 123.2 49.0319 122.97 49.5079C122.741 49.9813 122.426 50.3463 122.026 50.6031C121.625 50.8571 121.168 50.9841 120.654 50.9841C120.267 50.9841 119.951 50.9213 119.705 50.7956C119.462 50.6699 119.271 50.5228 119.133 50.3543C118.995 50.1859 118.889 50.0361 118.814 49.9051H118.711V50.8638H117.501ZM118.715 47.783C118.715 48.2162 118.78 48.596 118.91 48.9222C119.039 49.2485 119.227 49.5039 119.473 49.6884C119.719 49.8703 120.02 49.9612 120.376 49.9612C120.747 49.9612 121.056 49.8663 121.305 49.6764C121.553 49.4838 121.741 49.2231 121.868 48.8942C121.998 48.5652 122.063 48.1948 122.063 47.783C122.063 47.3765 121.999 47.0114 121.872 46.6878C121.748 46.3642 121.56 46.1089 121.309 45.9216C121.06 45.7344 120.749 45.6408 120.376 45.6408C120.017 45.6408 119.713 45.7304 119.465 45.9096C119.219 46.0888 119.032 46.3388 118.905 46.6598C118.778 46.9807 118.715 47.3551 118.715 47.783Z" fill="white"></path>
        <path d="M125.944 42.6483V50.8638H124.705V42.6483H125.944Z" fill="white"></path>
        <path d="M130.354 50.9882C129.727 50.9882 129.187 50.8584 128.734 50.599C128.284 50.337 127.936 49.9692 127.69 49.4959C127.447 49.0199 127.325 48.4623 127.325 47.8231C127.325 47.192 127.447 46.6357 127.69 46.1543C127.936 45.6729 128.278 45.2972 128.717 45.0271C129.159 44.757 129.676 44.6219 130.267 44.6219C130.626 44.6219 130.974 44.6794 131.311 44.7944C131.648 44.9094 131.951 45.0899 132.219 45.336C132.487 45.582 132.698 45.9016 132.853 46.2947C133.007 46.6852 133.085 47.1599 133.085 47.7188V48.144H128.025V47.2454H131.871C131.871 46.9299 131.804 46.6504 131.672 46.407C131.539 46.161 131.353 45.9671 131.112 45.8254C130.875 45.6836 130.596 45.6128 130.275 45.6128C129.927 45.6128 129.624 45.6957 129.364 45.8615C129.107 46.0246 128.908 46.2386 128.767 46.5033C128.629 46.7654 128.56 47.0502 128.56 47.3578V48.0598C128.56 48.4716 128.635 48.822 128.784 49.1108C128.936 49.3996 129.147 49.6202 129.418 49.7727C129.688 49.9224 130.005 49.9973 130.367 49.9973C130.601 49.9973 130.816 49.9652 131.009 49.901C131.202 49.8342 131.369 49.7352 131.51 49.6042C131.651 49.4731 131.759 49.3114 131.833 49.1188L133.006 49.3234C132.912 49.6577 132.744 49.9505 132.501 50.2019C132.26 50.4506 131.958 50.6445 131.593 50.7836C131.231 50.92 130.818 50.9882 130.354 50.9882Z" fill="white"></path>
        <path d="M134.459 50.8638V44.7022H135.649V45.705H135.727C135.86 45.3654 136.077 45.1006 136.378 44.9108C136.679 44.7182 137.04 44.6219 137.459 44.6219C137.885 44.6219 138.241 44.7182 138.528 44.9108C138.819 45.1033 139.033 45.3681 139.171 45.705H139.237C139.389 45.3761 139.631 45.114 139.962 44.9188C140.294 44.7209 140.689 44.6219 141.147 44.6219C141.725 44.6219 142.196 44.7971 142.56 45.1474C142.928 45.4978 143.111 46.0259 143.111 46.732V50.8638H141.872V46.8443C141.872 46.4271 141.755 46.1249 141.52 45.9377C141.285 45.7505 141.005 45.6569 140.679 45.6569C140.276 45.6569 139.962 45.7772 139.738 46.0179C139.515 46.2559 139.403 46.5621 139.403 46.9366V50.8638H138.168V46.7681C138.168 46.4338 138.06 46.165 137.845 45.9618C137.629 45.7585 137.349 45.6569 137.004 45.6569C136.769 45.6569 136.552 45.7171 136.353 45.8374C136.157 45.9551 135.998 46.1195 135.877 46.3308C135.758 46.5421 135.698 46.7868 135.698 47.0649V50.8638H134.459Z" fill="white"></path>
        <path d="M147.515 50.9882C146.888 50.9882 146.348 50.8584 145.895 50.599C145.445 50.337 145.096 49.9692 144.851 49.4959C144.608 49.0199 144.486 48.4623 144.486 47.8231C144.486 47.192 144.608 46.6357 144.851 46.1543C145.096 45.6729 145.439 45.2972 145.878 45.0271C146.32 44.757 146.837 44.6219 147.428 44.6219C147.787 44.6219 148.135 44.6794 148.472 44.7944C148.809 44.9094 149.112 45.0899 149.38 45.336C149.648 45.582 149.859 45.9016 150.014 46.2947C150.168 46.6852 150.246 47.1599 150.246 47.7188V48.144H145.186V47.2454H149.031C149.031 46.9299 148.965 46.6504 148.833 46.407C148.7 46.161 148.514 45.9671 148.273 45.8254C148.036 45.6836 147.757 45.6128 147.436 45.6128C147.088 45.6128 146.784 45.6957 146.525 45.8615C146.268 46.0246 146.069 46.2386 145.928 46.5033C145.79 46.7654 145.721 47.0502 145.721 47.3578V48.0598C145.721 48.4716 145.795 48.822 145.945 49.1108C146.096 49.3996 146.308 49.6202 146.578 49.7727C146.849 49.9224 147.165 49.9973 147.527 49.9973C147.762 49.9973 147.976 49.9652 148.17 49.901C148.363 49.8342 148.53 49.7352 148.671 49.6042C148.812 49.4731 148.92 49.3114 148.994 49.1188L150.167 49.3234C150.073 49.6577 149.904 49.9505 149.661 50.2019C149.421 50.4506 149.119 50.6445 148.754 50.7836C148.392 50.92 147.979 50.9882 147.515 50.9882Z" fill="white"></path>
        <path d="M152.859 47.2053V50.8638H151.62V44.7022H152.809V45.705H152.888C153.035 45.3788 153.264 45.1167 153.576 44.9188C153.891 44.7209 154.287 44.6219 154.765 44.6219C155.199 44.6219 155.579 44.7102 155.905 44.8867C156.231 45.0605 156.483 45.3199 156.663 45.6649C156.843 46.0099 156.932 46.4365 156.932 46.9446V50.8638H155.693V47.089C155.693 46.6424 155.573 46.2934 155.333 46.042C155.093 45.7879 154.762 45.6609 154.343 45.6609C154.055 45.6609 153.8 45.7211 153.576 45.8414C153.355 45.9618 153.18 46.1383 153.05 46.3709C152.923 46.6009 152.859 46.8791 152.859 47.2053Z" fill="white"></path>
        <path d="M161.565 44.7022V45.6649H158.088V44.7022H161.565ZM159.021 43.2259H160.26V49.0546C160.26 49.2873 160.296 49.4625 160.367 49.5801C160.439 49.6951 160.532 49.774 160.645 49.8168C160.761 49.8569 160.887 49.877 161.022 49.877C161.121 49.877 161.209 49.8703 161.283 49.8569C161.358 49.8435 161.416 49.8328 161.457 49.8248L161.681 50.8157C161.609 50.8424 161.507 50.8691 161.374 50.8959C161.242 50.9253 161.076 50.9414 160.877 50.944C160.551 50.9494 160.247 50.8932 159.965 50.7755C159.684 50.6579 159.456 50.476 159.282 50.23C159.108 49.9839 159.021 49.6751 159.021 49.3033V43.2259Z" fill="white"></path>
      </g>
    </g>
  </g>
</svg>
