<?xml version="1.0" encoding="UTF-8"?>
<svg id="Layer_1" data-name="Layer 1" xmlns="http://www.w3.org/2000/svg" viewBox="0 0 17.78 23.4">
  <defs>
    <style>
      .cls-1 {
        fill: #fff;
        stroke-width: 0px;
      }
    </style>
  </defs>
  <path id="Vector" class="cls-1" d="m17.47,11.58L6.18.26c-.56-.57-1.49-.13-1.5.72v2.71l6.83,6.83c.42.41.65.95.65,1.51s-.23,1.1-.65,1.51l-6.83,6.37v2.5c0,.83.87,1.29,1.45.76l11.42-10.19c.16-.21.24-.46.22-.71s-.12-.5-.31-.69Z"/>
  <path id="Vector_2" data-name="Vector 2" class="cls-1" d="m.11,3.88l-.11,16.59c0,.92.92,1.39,1.53.8l8.44-8.08c.21-.22.32-.51.32-.8s-.12-.58-.32-.8L1.63,3.1c-.57-.64-1.53-.14-1.53.78Z"/>
</svg>