<?xml version="1.0" encoding="UTF-8"?>
<svg id="Layer_1" data-name="Layer 1" xmlns="http://www.w3.org/2000/svg" width="8.26in" height="6.22in" viewBox="0 0 594.82 447.52">
  <defs>
    <style>
      .cls-1 {
        fill: #fff;
      }
    </style>
  </defs>
  <path id="path4605" class="cls-1" d="M26.74,326.42l6,5.6c5.57,5.18,13.35,2.46,18.74-3.34s7.71-13.92,2.14-19.1l-6-5.61-20.88,22.45Zm19.19-40l15.67,14.58c11.43,10.63,10,25.32-.51,36.57s-24.86,13.6-36.28,3l-15.67-14.57,36.79-39.58Z"/>
  <rect id="rect4607" class="cls-1" x="54.92" y="345.77" width="54.04" height="13.1" transform="translate(-252.86 215.36) rotate(-54.66)"/>
  <path id="path4609" class="cls-1" d="M126.41,361.76l-6.14,11.75,7.65,4c3.83,2,6.82-.34,8.3-3.19s1.66-6.57-2.17-8.56l-7.64-4Zm-31.36,31.69l25-47.91,19.81,10.35c11.27,5.87,12.24,16.56,8.06,24.55-3.55,6.82-10.68,11.5-19.49,9.38l3,22.65-13.48-7-2-21.36-1-.55-8.35,16-11.55-6.11Z"/>
  <polygon id="polygon4611" class="cls-1" points="206.26 381.95 202.68 392.83 181.82 385.99 178.6 395.83 196.93 401.84 193.44 412.49 175.1 406.49 172.12 415.58 193.66 422.64 190.09 433.52 156.11 422.38 172.94 371.03 206.26 381.95"/>
  <path id="path4613" class="cls-1" d="M264.66,435.32c-10.28,11.3-27.77,12.13-39.07,1.85s-12.13-27.77-1.85-39.07c10.28-11.3,27.77-12.13,39.07-1.85,2.71,2.46,4.9,5.44,6.45,8.76,1-.56-11.9,5.92-11.9,5.92-3.28-7.27-11.84-10.5-19.1-7.21-7.27,3.28-10.5,11.84-7.21,19.1,3.28,7.27,11.84,10.5,19.1,7.21,1.92-.87,3.63-2.15,5-3.74l9.51,9.03Z"/>
  <polygon id="polygon4615" class="cls-1" points="325.15 392.88 325.41 404.33 311.46 404.64 312.44 447.21 299.35 447.52 298.37 404.95 284.41 405.27 284.15 393.83 325.15 392.88"/>
  <path id="path4617" class="cls-1" d="M428.55,413.68c-4.68,14.54-20.25,22.53-34.79,17.85-14.54-4.68-22.53-20.25-17.85-34.79,4.68-14.54,20.25-22.53,34.79-17.85,3.48,1.12,6.71,2.92,9.49,5.3,.71-.93-8.38,10.32-8.38,10.32-6-5.27-15.13-4.67-20.39,1.33-5.27,6-4.67,15.13,1.33,20.39,6,5.27,15.13,4.67,20.39-1.33,1.39-1.59,2.42-3.46,3.01-5.49l12.4,4.27Z"/>
  <polygon id="polygon4619" class="cls-1" points="444.95 360.12 463.34 398.52 480.88 390.12 485.82 400.45 456.33 414.57 433 365.84 444.95 360.12"/>
  <path id="path4621" class="cls-1" d="M493.24,373.76l-19.41-28.33,10.86-7.44,19.42,28.33c2.55,3.71,7.62,4.66,11.34,2.12,3.71-2.55,4.66-7.62,2.11-11.34h0l-19.41-28.34,10.87-7.45,19.39,28.33c7.05,10.29,3.18,22.53-6.08,28.87s-22.06,5.52-29.11-4.77"/>
  <path id="path4623" class="cls-1" d="M556.09,321.53l7.64,7.89,6-5.84c2.93-2.84,2.38-6.23,.47-8.2-1.75-1.8-5-2.69-8.16,.37l-5.95,5.78Zm-2.4-12.63c1.8-1.51,2.03-4.19,.52-5.99-.11-.13-.23-.26-.36-.38-2-2-4.34-2.68-6.59-.5l-5.19,5,6.55,6.76,5.07-4.89Zm10.78-4.43c6.06-4.34,12.84-1.73,16.44,2,5.45,5.64,7.81,14.72-1.66,23.88l-17,16.48-37.59-38.82,15.89-15.39c7.21-7,15.93-7.34,22-1.08,2.13,2.19,5.1,7.51,2,12.95"/>
  <path id="path4625" class="cls-1" d="M40.71,144.54C2.46,134.16,2.19,114.76,2.46,103.01c.27-18.85,23-36.34,49.73-36.34s52.18,11.21,52.46,42.35h-35.8c-.27-9.56-8.47-11.2-14.48-11.2-8.2,0-13.66,3.83-13.38,9.56,.26,3.83,3.55,7.65,11.2,9.57l21.58,5.73c30.88,8.47,34.7,29,34.7,37.16,0,27-28.41,39.9-55.19,39.9S.28,184.16,0,155.74H35.52c.27,7.38,8.47,14.75,18.85,14.75,8.47-.27,15.58-4.1,15.58-10.66,0-5.46-3.28-8.47-12.57-10.93l-16.67-4.36Z"/>
  <path id="path4627" class="cls-1" d="M243.41,129.52v67.49h-38v-68.86c-.27-16.12-10.11-24.59-21-24.59-11.48,0-22.13,6.56-22.13,26v67.49h-38V69.4h38v18.59c6-13.4,19.67-21,33.33-21,20.22,0,33.88,7.65,41,22.41,12.29-20,29.23-22.68,38.25-22.68,30.33,0,49.18,19.4,49.18,57.93v72.41h-37.7v-68c0-16.67-9.84-25.41-21-25.41-12,0-21.86,7.37-21.86,26"/>
  <path id="path4629" class="cls-1" d="M365.58,0C378.43,0,388.81,9.57,388.81,22.14s-10.38,22.4-23.23,22.4-23.77-9.84-23.77-22.4S352.74,0,365.58,0m18.86,197h-37.71V69.4h37.68l.03,127.6Z"/>
  <rect id="rect4631" class="cls-1" x="408.48" width="37.98" height="197"/>
  <path id="path4633" class="cls-1" d="M587.72,173.76c-12.84,19.12-36.61,26-58.2,26-36.61,0-66.67-26.78-66.67-67s30.06-66.12,66.67-66.12,65.3,27.05,65.3,67.22c0,3.28-.27,8.47-.54,11.74h-93.45c1.92,14.76,18,21.32,31.42,21.32,10.39,0,21.59-3.83,27.87-12l27.6,18.84Zm-31.15-51.9c-1.91-15.57-16.12-21.85-26.78-21.85s-25.13,5.75-28.38,21.85h55.16Z"/>
</svg>