<?xml version="1.0" encoding="UTF-8" standalone="no"?>
<svg
   xmlns:dc="http://purl.org/dc/elements/1.1/"
   xmlns:cc="http://creativecommons.org/ns#"
   xmlns:rdf="http://www.w3.org/1999/02/22-rdf-syntax-ns#"
   xmlns:svg="http://www.w3.org/2000/svg"
   xmlns="http://www.w3.org/2000/svg"
   height="447.51999"
   width="594.82001"
   version="1.1"
   viewBox="0 0 594.82001 447.51999"
   data-name="Layer 1"
   id="Layer_1">
  <metadata
     id="metadata4640">
    <rdf:RDF>
      <cc:Work
         rdf:about="">
        <dc:format>image/svg+xml</dc:format>
        <dc:type
           rdf:resource="http://purl.org/dc/dcmitype/StillImage" />
        <dc:title>Artboard 2</dc:title>
      </cc:Work>
    </rdf:RDF>
  </metadata>
  <defs
     id="defs4601">
    <style
       id="style4599"
       type="text/css">.cls-1{fill:#5700ff;}</style>
  </defs>
  <title
     id="title4603">Artboard 2</title>
  <path
     style="fill:#5700ff"
     id="path4605"
     d="m 26.74,326.42 6,5.6 c 5.57,5.18 13.35,2.46 18.74,-3.34 5.39,-5.8 7.71,-13.92 2.14,-19.1 l -6,-5.61 z m 19.19,-40 L 61.6,301 c 11.43,10.63 10,25.32 -0.51,36.57 -10.51,11.25 -24.86,13.6 -36.28,3 L 9.14,326 Z"
     class="cls-1" />
  <rect
     style="fill:#5700ff"
     id="rect4607"
     transform="rotate(-54.66)"
     height="13.1"
     width="54.040001"
     y="264.07715"
     x="-267.0231"
     class="cls-1" />
  <path
     style="fill:#5700ff"
     id="path4609"
     d="m 126.41,361.76 -6.14,11.75 7.65,4 c 3.83,2 6.82,-0.34 8.3,-3.19 1.48,-2.85 1.66,-6.57 -2.17,-8.56 z m -31.36,31.69 25,-47.91 19.81,10.35 c 11.27,5.87 12.24,16.56 8.06,24.55 -3.55,6.82 -10.68,11.5 -19.49,9.38 l 3,22.65 -13.48,-7 -2,-21.36 -1,-0.55 -8.35,16 z"
     class="cls-1" />
  <polygon
     transform="translate(-2.59,-76.239998)"
     style="fill:#5700ff"
     id="polygon4611"
     points="208.85,458.19 205.27,469.07 184.41,462.23 181.19,472.07 199.52,478.08 196.03,488.73 177.69,482.73 174.71,491.82 196.25,498.88 192.68,509.76 158.7,498.62 175.53,447.27 "
     class="cls-1" />
  <path
     style="fill:#5700ff"
     id="path4613"
     d="m 264.66,435.32 a 27.66,27.66 0 1 1 4.6,-30.31 c 1,-0.56 -11.9,5.92 -11.9,5.92 a 14.44,14.44 0 1 0 -2.21,15.36 z"
     class="cls-1" />
  <polygon
     transform="translate(-2.59,-76.239998)"
     style="fill:#5700ff"
     id="polygon4615"
     points="327.74,469.12 328,480.57 314.05,480.88 315.03,523.45 301.94,523.76 300.96,481.19 287,481.51 286.74,470.07 "
     class="cls-1" />
  <path
     style="fill:#5700ff"
     id="path4617"
     d="m 428.55,413.68 a 27.65,27.65 0 1 1 -8.36,-29.49 c 0.71,-0.93 -8.38,10.32 -8.38,10.32 a 14.45,14.45 0 1 0 4.34,14.9 z"
     class="cls-1" />
  <polygon
     transform="translate(-2.59,-76.239998)"
     style="fill:#5700ff"
     id="polygon4619"
     points="447.54,436.36 465.93,474.76 483.47,466.36 488.41,476.69 458.92,490.81 435.59,442.08 "
     class="cls-1" />
  <path
     style="fill:#5700ff"
     id="path4621"
     d="m 493.24,373.76 -19.41,-28.33 10.86,-7.44 19.42,28.33 a 8.1533873,8.1533873 0 0 0 13.45,-9.22 l -19.41,-28.34 10.87,-7.45 19.39,28.33 c 7.05,10.29 3.18,22.53 -6.08,28.87 -9.26,6.34 -22.06,5.52 -29.11,-4.77"
     class="cls-1" />
  <path
     style="fill:#5700ff"
     id="path4623"
     d="m 556.09,321.53 7.64,7.89 6,-5.84 c 2.93,-2.84 2.38,-6.23 0.47,-8.2 -1.75,-1.8 -5,-2.69 -8.16,0.37 z m -2.4,-12.63 a 4.25,4.25 0 0 0 0.16,-6.37 c -2,-2 -4.34,-2.68 -6.59,-0.5 l -5.19,5 6.55,6.76 z m 10.78,-4.43 c 6.06,-4.34 12.84,-1.73 16.44,2 5.45,5.64 7.81,14.72 -1.66,23.88 l -17,16.48 -37.59,-38.82 15.89,-15.39 c 7.21,-7 15.93,-7.34 22,-1.08 2.13,2.19 5.1,7.51 2,12.95"
     class="cls-1" />
  <path
     style="fill:#5700ff"
     id="path4625"
     d="M 40.71,144.54 C 2.46,134.16 2.19,114.76 2.46,103.01 c 0.27,-18.849998 23,-36.339998 49.73,-36.339998 25.41,0 52.18,11.21 52.46,42.349998 H 68.85 C 68.58,99.460002 60.38,97.820002 54.37,97.820002 c -8.2,0 -13.66,3.829998 -13.38,9.559998 0.26,3.83 3.55,7.65 11.2,9.57 l 21.58,5.73 c 30.88,8.47 34.7,29 34.7,37.16 0,27 -28.41,39.9 -55.19,39.9 -26,0 -53,-15.58 -53.28,-44 h 35.52 c 0.27,7.38 8.47,14.75 18.85,14.75 8.47,-0.27 15.58,-4.1 15.58,-10.66 0,-5.46 -3.28,-8.47 -12.57,-10.93 z"
     class="cls-1" />
  <path
     style="fill:#5700ff"
     id="path4627"
     d="m 243.41,129.52 v 67.49 h -38 v -68.86 c -0.27,-16.12 -10.11,-24.59 -21,-24.59 -11.48,0 -22.13,6.56 -22.13,26 v 67.49 h -38 V 69.400002 h 38 v 18.59 c 6,-13.4 19.67,-21 33.33,-21 20.22,0 33.88,7.65 41,22.41 12.29,-20 29.23,-22.68 38.25,-22.68 30.33,0 49.18,19.4 49.18,57.929998 v 72.41 h -37.7 v -68 c 0,-16.67 -9.84,-25.41 -21,-25.41 -12,0 -21.86,7.37 -21.86,26"
     class="cls-1" />
  <path
     style="fill:#5700ff"
     id="path4629"
     d="m 365.58,2.1362305e-6 c 12.85,0 23.23,9.5699999637695 23.23,22.1399998637695 0,12.57 -10.38,22.4 -23.23,22.4 -12.85,0 -23.77,-9.84 -23.77,-22.4 C 341.81,9.5800021 352.74,2.1362305e-6 365.58,2.1362305e-6 M 384.44,197 H 346.73 V 69.400002 h 37.68 z"
     class="cls-1" />
  <rect
     style="fill:#5700ff"
     id="rect4631"
     height="197"
     width="37.98"
     y="0"
     x="408.48001"
     class="cls-1" />
  <path
     style="fill:#5700ff"
     id="path4633"
     d="m 587.72,173.76 c -12.84,19.12 -36.61,26 -58.2,26 -36.61,0 -66.67,-26.78 -66.67,-67 0,-40.219998 30.06,-66.119998 66.67,-66.119998 36.34,0 65.3,27.05 65.3,67.219998 0,3.28 -0.27,8.47 -0.54,11.74 h -93.45 c 1.92,14.76 18,21.32 31.42,21.32 10.39,0 21.59,-3.83 27.87,-12 z m -31.15,-51.9 c -1.91,-15.57 -16.12,-21.85 -26.78,-21.85 -10.66,0 -25.13,5.75 -28.38,21.85 z"
     class="cls-1" />
  <path
     style="fill:#5700ff"
     id="path4635"
     d="m 573.05,11.070002 3.78,11.93 3.71,-11.93 h 8.62 v 20.75 h -5.51 v -15.06 l -4.5,15 h -4.74 l -4.5,-15 v 15 h -5.5 v -20.69 z m -28.77,5 v -5 h 18.32 v 5 h -6.19 v 15.78 h -6 v -15.81 z"
     class="cls-1" />
</svg>
