<?xml version="1.0" encoding="UTF-8"?>
<svg id="Layer_1" data-name="Layer 1" xmlns="http://www.w3.org/2000/svg" width="1.56in" height=".49in" viewBox="0 0 112.11 35.21">
  <defs>
    <style>
      .cls-1 {
        fill: #fff;
      }
    </style>
  </defs>
  <path class="cls-1" d="M89.22,32.52c-.03,.38-.08,.66-.05,.92,.09,.77-.21,1.08-1.01,1.06-2.08-.04-4.15-.04-6.23,0-.84,.02-1.11-.31-1.11-1.12,.02-10.74,.02-21.47,0-32.21,0-.9,.35-1.18,1.21-1.17,2,.04,3.99,.04,5.99,0,.88-.02,1.19,.31,1.18,1.2-.04,3.27-.01,6.55-.02,9.82,0,.38,0,.76,0,1.36,3.22-2.35,6.69-2.96,10.36-2.61,6.94,.67,12.14,5.53,12.54,12.08,.3,4.97-2.93,10.04-8.09,12.13-4.86,1.97-9.38,1.54-14.78-1.45Zm7.24-3.78c1.73,.02,3.33-.38,4.76-1.36,3.72-2.55,3.54-7.99-.4-10.17-3.08-1.7-6.23-1.6-9.19,.35-3.23,2.13-3.54,6.42-.75,9.09,1.56,1.49,3.47,2.05,5.57,2.09Z"/>
  <path class="cls-1" d="M38.18,24.74c.41,1.69,1.45,2.74,2.83,3.34,2.78,1.21,5.65,1.36,8.48,.16,.81-.35,1.55-.98,2.17-1.62,.48-.49,.86-.71,1.54-.53,1.77,.48,3.56,.88,5.34,1.33,1.16,.29,1.25,.53,.57,1.54-1.9,2.82-4.63,4.49-7.82,5.39-4.8,1.35-9.57,1.16-14.16-.9-7.91-3.55-9.89-13.27-3.94-19.4,2.24-2.31,5.07-3.58,8.23-4.07,4.07-.63,8.05-.39,11.81,1.46,4.75,2.33,7.22,6.93,6.68,12.19-.1,.97-.58,1.13-1.43,1.13-6.27-.02-12.54-.01-18.81-.01-.47,0-.94,0-1.5,0Zm.03-4.94h13.32c-.57-2.29-2.82-3.78-5.85-3.97-3.58-.22-6.38,1.23-7.46,3.97Z"/>
  <path class="cls-1" d="M16.21,26.09c1.85-3.95,3.6-7.7,5.35-11.45,.54-1.16,1.12-2.29,1.61-3.47,.29-.71,.73-.93,1.47-.92,2.2,.04,4.39,0,6.59,.02,1.2,0,1.37,.28,.84,1.35-3.67,7.35-7.33,14.7-11.04,22.03-.2,.39-.81,.79-1.24,.8-2.39,.08-4.79,.08-7.18,0-.43-.01-1.06-.39-1.25-.77C7.66,26.4,4.01,19.08,.35,11.77c-.63-1.27-.48-1.49,.98-1.5,2.12,0,4.23,.04,6.35-.02,.87-.03,1.29,.32,1.63,1.06,2,4.35,4.03,8.68,6.06,13.01,.25,.53,.5,1.05,.84,1.77Z"/>
  <path class="cls-1" d="M70.01,12.74c2.38-2.3,5.05-2.94,7.99-2.83,.93,.03,1.38,.27,1.32,1.31-.09,1.39-.09,2.8,0,4.19,.07,1.14-.41,1.26-1.41,1.25-1.41-.02-2.89,.02-4.22,.42-2.17,.66-3.29,2.47-3.42,4.63-.22,3.66-.19,7.33-.25,11-.03,1.99,.17,1.77-1.82,1.78-1.8,0-3.59-.02-5.39,.01-.73,.01-1.1-.17-1.1-.99,.02-7.39,.02-14.77,0-22.16,0-.85,.37-1.11,1.17-1.09,1.88,.03,3.76,.08,5.63-.02,1.23-.06,1.71,.35,1.51,1.56-.03,.19,0,.4,0,.94Z"/>
</svg>